<svg width="211" height="53" viewBox="0 0 211 53" fill="none" xmlns="http://www.w3.org/2000/svg">
<path d="M0 44.8579V36.8506H8.13015V42.025L11.2701 45.165H19.4617L22.4174 42.2707V9.20117H30.7932V45.1036L23.5882 52.3086H7.3893L0 44.8579Z" fill="#F8EEE0"/>
<path d="M37.5684 45.6602V39.4992H45.8214V43.1344L47.852 45.165H60.6L62.6958 43.073V35.9293L60.6614 33.8987H44.3397L37.6874 27.2464V15.8535L44.3397 9.20117H63.8014L70.4536 15.8535V22.072H62.2007V18.3754L60.1662 16.3448H47.971L45.9404 18.3754V24.7206L47.971 26.7512H64.2927L70.945 33.4035V45.5373L64.1699 52.3125H44.213L37.5607 45.6602H37.5684Z" fill="#F8EEE0"/>
<path d="M77.1098 45.2268V16.28L84.192 9.19775H105.254L112.214 16.1571V22.748H103.838V19.2395L100.944 16.3452H88.6256L85.4856 19.4852V42.0254L88.6256 45.1654H100.944L103.838 42.2711V38.7588H112.214V45.3497L105.254 52.3091H84.192L77.1098 45.2268Z" fill="#F8EEE0"/>
<path d="M117.139 45.9058V28.0448L123.484 21.6382H141.099L147.441 28.0448V45.9058L141.099 52.3124H123.484L117.139 45.9058ZM137.157 45.5373L139.314 43.38V30.5706L137.157 28.4171H127.426L125.269 30.5706V43.38L127.426 45.5373H137.157Z" fill="#F8EEE0"/>
<path d="M154.216 21.6382H161.728V26.7512L166.841 21.6382H176.756L183.592 28.4747V52.3086H175.462V30.6896L173.37 28.5323H168.196L162.346 34.4438V52.3047H154.216V21.6382Z" fill="#F8EEE0"/>
<path d="M193.45 28.4745H187.907V21.638H193.45V15.5423L199.669 9.32373H211V16.0374H203.177L201.453 17.761V21.6418H211V28.4783H201.576V52.3122H193.446V28.4783L193.45 28.4745Z" fill="#F8EEE0"/>
<path d="M114.812 15.13V6.97L116.682 5.1H121.782L123.584 6.902V7.99H122.292V7.327L121.204 6.256H117.26L116.104 7.395V14.705L117.26 15.844H121.204L122.292 14.773V14.11H123.584V15.198L121.782 17H116.682L114.812 15.13ZM125.452 15.436V10.098L127.016 8.534H131.368L132.932 10.098V15.436L131.368 17H127.016L125.452 15.436ZM130.824 15.878L131.674 15.045V10.489L130.824 9.656H127.56L126.71 10.489V15.045L127.56 15.878H130.824ZM135.402 4.862H136.66V17H135.402V4.862ZM139.132 15.436V10.098L140.696 8.534H145.048L146.612 10.098V15.436L145.048 17H140.696L139.132 15.436ZM144.504 15.878L145.354 15.045V10.489L144.504 9.656H141.24L140.39 10.489V15.045L141.24 15.878H144.504ZM148.997 8.534H150.221V10.166L151.853 8.534H153.876L155.202 9.86L156.528 8.534H159.197L160.761 10.098V17H159.503V10.489L158.653 9.656H156.783L155.593 10.846V17H154.369V10.489L153.519 9.656H152.091L150.255 11.492V17H148.997V8.534ZM163.225 15.436V4.862H164.483V10.183L166.132 8.534H169.107L170.671 10.098V15.436L169.107 17H164.789L163.225 15.436ZM168.563 15.878L169.413 15.045V10.489L168.563 9.656H166.489L164.483 11.662V15.045L165.333 15.878H168.563ZM172.968 6.596V5.848L173.478 5.338H174.226L174.736 5.848V6.596L174.226 7.106H173.478L172.968 6.596ZM173.223 8.534H174.481V17H173.223V8.534ZM176.948 15.606V13.447L178.342 12.07H182.864V10.455L182.014 9.622H179.124L178.274 10.455V11.152H177.016V10.098L178.58 8.534H182.541L184.105 10.098V17H182.898V15.504L181.334 17H178.342L176.948 15.606ZM181.079 15.912L182.864 14.195V13.158H178.886L178.206 13.821V15.249L178.886 15.912H181.079Z" fill="#F8EEE0"/>
</svg>
